<?xml version="1.0" encoding="UTF-8"?>
<svg xmlns="http://www.w3.org/2000/svg" viewBox="0 0 640 250" role="img" aria-labelledby="title desc">
  <title id="title">Qótimo Sorvetes</title>
  <desc id="desc">Logotipo vetorial Qótimo Sorvetes em vermelho, branco e azul-marinho.</desc>
  <g fill-rule="evenodd" stroke="none">
    <path fill="#003B6B" d="M 547.5,36.0 L 552.0,31.5 L 557.0,28.5 L 560.0,27.5 L 568.0,27.5 L 576.5,35.0 L 576.5,42.0 L 575.5,44.0 L 569.0,49.5 L 567.5,51.0 L 568.0,51.5 L 578.0,47.5 L 586.0,46.5 L 586.5,46.0 L 587.0,45.5 L 598.0,46.5 L 605.0,49.5 L 611.5,56.0 L 612.5,58.0 L 612.5,65.0 L 605.0,73.5 L 600.0,75.5 L 591.0,74.5 L 583.0,70.5 L 574.0,67.5 L 571.0,67.5 L 570.5,68.0 L 576.5,74.0 L 577.5,76.0 L 577.5,80.0 L 576.5,82.0 L 570.0,87.5 L 563.0,87.5 L 558.0,84.5 L 551.0,83.5 L 550.5,83.0 L 550.0,82.5 L 540.0,84.5 L 536.5,81.0 L 537.5,78.0 L 548.0,69.5 L 556.0,66.5 L 554.5,62.0 L 562.5,55.0 L 562.0,54.5 L 561.0,54.5 L 557.0,56.5 L 548.0,63.5 L 539.0,74.5 L 533.5,70.0 L 534.5,61.0 L 538.5,49.0 L 542.5,42.0 Z M 228.0,164.5 L 224.0,164.5 L 223.5,165.0 L 223.0,165.5 L 206.0,165.5 L 205.5,165.0 L 205.0,164.5 L 201.0,164.5 L 195.0,162.5 L 188.0,158.5 L 179.5,149.0 L 175.5,137.0 L 175.5,124.0 L 180.5,111.0 L 190.0,101.5 L 199.0,97.5 L 208.0,96.5 L 208.5,96.0 L 209.0,95.5 L 222.0,95.5 L 222.5,96.0 L 223.0,96.5 L 228.0,96.5 L 234.0,98.5 L 243.0,103.5 L 247.5,108.0 L 251.5,114.0 L 254.5,123.0 L 254.5,136.0 L 254.0,136.5 L 253.5,137.0 L 252.5,143.0 L 248.5,151.0 L 241.0,158.5 L 234.0,162.5 Z M 558.0,53.5 L 548.0,60.5 L 539.0,71.5 L 536.5,70.0 L 537.5,61.0 L 541.5,49.0 L 545.5,42.0 L 552.0,34.5 L 560.0,30.5 L 568.0,30.5 L 573.5,35.0 L 573.5,42.0 L 572.5,44.0 L 567.0,48.5 Z M 568.0,69.5 L 566.0,68.5 L 559.0,68.5 L 558.5,69.0 L 558.0,69.5 L 552.0,70.5 L 541.0,77.5 L 539.5,81.0 L 543.0,81.5 L 543.5,81.0 L 544.0,80.5 L 548.0,80.5 L 550.0,79.5 L 550.5,80.0 L 551.0,80.5 L 558.0,81.5 L 563.0,84.5 L 570.0,84.5 L 573.5,82.0 L 574.5,80.0 L 574.5,76.0 L 573.5,74.0 Z M 564.0,172.5 L 567.0,170.5 L 576.5,160.0 L 580.5,153.0 L 580.5,152.0 L 580.5,151.0 L 583.5,145.0 L 584.5,134.0 L 585.0,133.5 L 585.5,133.0 L 584.5,119.0 L 584.0,118.5 L 583.5,118.0 L 583.5,115.0 L 581.5,109.0 L 580.0,107.5 L 579.0,107.5 L 578.0,107.5 L 576.5,110.0 L 578.5,113.0 L 579.5,119.0 L 580.0,119.5 L 580.5,120.0 L 581.5,131.0 L 581.0,131.5 L 580.5,132.0 L 580.5,139.0 L 580.0,139.5 L 579.5,140.0 L 579.5,143.0 L 577.5,149.0 L 570.5,161.0 L 562.0,169.5 L 558.0,172.5 L 544.0,178.5 L 536.0,179.5 L 535.5,180.0 L 535.0,180.5 L 518.0,180.5 L 517.5,180.0 L 517.0,179.5 L 512.0,179.5 L 511.5,179.0 L 511.0,178.5 L 505.0,177.5 L 502.0,175.5 L 498.0,174.5 L 492.0,170.5 L 491.0,170.5 L 490.0,170.5 L 486.0,174.5 L 480.0,177.5 L 474.0,179.5 L 469.0,179.5 L 468.5,180.0 L 468.0,180.5 L 454.0,179.5 L 444.0,174.5 L 443.0,174.5 L 442.0,174.5 L 440.0,176.5 L 439.0,176.5 L 438.0,176.5 L 435.0,178.5 L 428.0,179.5 L 427.5,180.0 L 427.0,180.5 L 415.0,180.5 L 414.5,180.0 L 414.0,179.5 L 410.0,179.5 L 403.0,176.5 L 401.0,174.5 L 400.0,174.5 L 399.0,174.5 L 397.0,176.5 L 396.0,176.5 L 395.0,176.5 L 392.0,178.5 L 383.0,179.5 L 382.5,180.0 L 382.0,180.5 L 367.0,179.5 L 357.0,174.5 L 356.0,174.5 L 355.0,174.5 L 350.0,177.5 L 344.0,179.5 L 328.0,180.5 L 327.5,180.0 L 327.0,179.5 L 320.0,178.5 L 312.0,173.5 L 304.0,177.5 L 298.0,178.5 L 297.5,179.0 L 297.0,179.5 L 293.0,179.5 L 292.5,180.0 L 292.0,180.5 L 280.0,180.5 L 279.5,180.0 L 279.0,179.5 L 272.0,178.5 L 264.0,174.5 L 256.0,165.5 L 255.0,165.5 L 254.0,165.5 L 246.0,172.5 L 238.0,176.5 L 232.0,178.5 L 229.0,178.5 L 228.5,179.0 L 228.0,179.5 L 225.0,179.5 L 224.5,180.0 L 224.0,180.5 L 204.0,180.5 L 203.5,180.0 L 203.0,179.5 L 194.0,178.5 L 190.0,176.5 L 186.0,176.5 L 182.5,181.0 L 182.5,190.0 L 182.0,190.5 L 181.5,191.0 L 180.5,198.0 L 176.5,207.0 L 170.5,216.0 L 161.0,225.5 L 148.0,232.5 L 142.0,233.5 L 141.5,234.0 L 141.0,234.5 L 125.0,234.5 L 124.5,234.0 L 124.0,233.5 L 118.0,232.5 L 107.0,226.5 L 97.5,217.0 L 94.5,213.0 L 89.0,200.5 L 75.0,198.5 L 63.0,193.5 L 50.0,184.5 L 40.5,174.0 L 33.5,163.0 L 28.5,151.0 L 28.5,148.0 L 26.5,143.0 L 26.5,139.0 L 26.0,138.5 L 25.5,138.0 L 25.5,116.0 L 26.0,115.5 L 26.5,115.0 L 27.5,105.0 L 31.5,93.0 L 39.5,77.0 L 45.5,68.0 L 49.5,63.0 L 69.0,44.5 L 91.0,31.5 L 92.0,31.5 L 93.0,31.5 L 96.0,29.5 L 105.0,26.5 L 108.0,26.5 L 113.0,24.5 L 118.0,24.5 L 118.5,24.0 L 119.0,23.5 L 138.0,23.5 L 138.5,24.0 L 139.0,24.5 L 143.0,24.5 L 143.5,25.0 L 144.0,25.5 L 147.0,25.5 L 153.0,27.5 L 162.0,32.5 L 168.5,39.0 L 173.5,49.0 L 176.0,49.5 L 177.5,48.0 L 176.5,44.0 L 171.5,36.0 L 167.0,31.5 L 154.0,23.5 L 144.0,21.5 L 143.5,21.0 L 143.0,20.5 L 138.0,20.5 L 137.5,20.0 L 137.0,19.5 L 122.0,19.5 L 121.5,20.0 L 121.0,20.5 L 114.0,20.5 L 113.5,21.0 L 113.0,21.5 L 105.0,22.5 L 96.0,26.5 L 95.0,26.5 L 94.0,26.5 L 91.0,28.5 L 90.0,28.5 L 89.0,28.5 L 79.0,33.5 L 64.0,43.5 L 49.5,57.0 L 49.5,58.0 L 43.5,64.0 L 35.5,76.0 L 26.5,95.0 L 25.5,101.0 L 23.5,105.0 L 23.5,109.0 L 23.0,109.5 L 22.5,110.0 L 22.5,116.0 L 22.0,116.5 L 21.5,117.0 L 21.5,136.0 L 22.0,136.5 L 22.5,137.0 L 22.5,143.0 L 23.0,143.5 L 23.5,144.0 L 24.5,151.0 L 27.5,160.0 L 37.5,177.0 L 51.0,190.5 L 57.0,194.5 L 67.0,199.5 L 76.0,202.5 L 86.0,203.5 L 89.5,212.0 L 93.5,218.0 L 97.5,223.0 L 105.0,229.5 L 116.0,235.5 L 122.0,237.5 L 128.0,237.5 L 128.5,238.0 L 129.0,238.5 L 138.0,238.5 L 138.5,238.0 L 139.0,237.5 L 144.0,237.5 L 150.0,235.5 L 160.0,230.5 L 168.0,224.5 L 175.5,216.0 L 182.5,203.0 L 185.5,194.0 L 187.0,180.5 L 191.0,180.5 L 200.0,183.5 L 207.0,183.5 L 207.5,184.0 L 208.0,184.5 L 227.0,183.5 L 227.5,183.0 L 228.0,182.5 L 238.0,180.5 L 248.0,175.5 L 255.0,170.5 L 263.0,178.5 L 275.0,183.5 L 281.0,183.5 L 281.5,184.0 L 282.0,184.5 L 296.0,183.5 L 296.5,183.0 L 297.0,182.5 L 307.0,180.5 L 310.0,178.5 L 313.0,178.5 L 315.0,180.5 L 320.0,182.5 L 330.0,183.5 L 330.5,184.0 L 331.0,184.5 L 343.0,183.5 L 343.5,183.0 L 344.0,182.5 L 347.0,182.5 L 353.0,180.5 L 356.0,178.5 L 361.0,181.5 L 367.0,182.5 L 367.5,183.0 L 368.0,183.5 L 387.0,183.5 L 387.5,183.0 L 388.0,182.5 L 391.0,182.5 L 397.0,180.5 L 400.0,178.5 L 402.0,180.5 L 403.0,180.5 L 404.0,180.5 L 407.0,182.5 L 418.0,183.5 L 418.5,184.0 L 419.0,184.5 L 430.0,183.5 L 430.5,183.0 L 431.0,182.5 L 434.0,182.5 L 440.0,180.5 L 443.0,178.5 L 448.0,181.5 L 454.0,183.5 L 465.0,184.5 L 465.5,184.0 L 466.0,183.5 L 473.0,183.5 L 477.0,181.5 L 480.0,181.5 L 491.0,175.5 L 499.0,179.5 L 508.0,182.5 L 520.0,183.5 L 520.5,184.0 L 521.0,184.5 L 531.0,184.5 L 531.5,184.0 L 532.0,183.5 L 539.0,183.5 L 539.5,183.0 L 540.0,182.5 L 544.0,182.5 L 550.0,180.5 Z M 350.5,150.0 L 350.5,107.0 L 348.5,102.0 L 343.0,96.5 L 339.5,95.0 L 344.0,92.5 L 348.5,88.0 L 350.5,84.0 L 350.5,81.0 L 343.0,72.5 L 339.0,70.5 L 336.0,70.5 L 335.5,70.0 L 335.0,69.5 L 324.0,70.5 L 313.5,80.0 L 313.5,85.0 L 314.5,87.0 L 322.5,94.0 L 321.0,95.5 L 315.0,97.5 L 309.5,103.0 L 313.5,109.0 L 313.5,154.0 L 315.5,159.0 L 323.0,166.5 L 328.0,168.5 L 338.0,168.5 L 349.0,164.5 L 354.5,159.0 L 354.5,158.0 L 354.5,157.0 L 350.5,153.0 Z M 607.5,55.0 L 609.5,58.0 L 609.5,65.0 L 605.0,70.5 L 600.0,72.5 L 591.0,71.5 L 588.0,69.5 L 587.0,69.5 L 586.0,69.5 L 583.0,67.5 L 574.0,64.5 L 569.0,64.5 L 568.5,64.0 L 568.0,63.5 L 557.5,64.0 L 557.5,63.0 L 557.5,62.0 L 559.0,60.5 L 568.0,54.5 L 578.0,50.5 L 586.0,49.5 L 586.5,49.0 L 587.0,48.5 L 598.0,49.5 L 605.0,52.5 Z M 304.5,112.0 L 304.5,113.0 L 304.0,113.5 L 297.0,113.5 L 295.5,115.0 L 295.5,146.0 L 300.0,149.5 L 303.0,149.5 L 303.5,149.0 L 304.0,148.5 L 306.5,151.0 L 306.5,155.0 L 305.5,157.0 L 300.0,162.5 L 292.0,165.5 L 282.0,165.5 L 274.0,162.5 L 267.5,155.0 L 265.5,149.0 L 265.5,115.0 L 263.0,113.5 L 262.5,114.0 L 262.0,114.5 L 260.0,113.5 L 258.5,111.0 L 260.5,105.0 L 263.5,102.0 L 265.5,98.0 L 265.5,88.0 L 268.0,86.5 L 276.0,85.5 L 276.5,85.0 L 277.0,84.5 L 285.0,83.5 L 285.5,83.0 L 286.0,82.5 L 292.0,83.5 L 295.5,87.0 L 295.5,99.0 L 304.0,99.5 L 305.5,101.0 L 305.5,110.0 Z M 535.5,137.0 L 533.5,143.0 L 529.0,146.5 L 524.0,146.5 L 519.5,142.0 L 518.5,140.0 L 518.5,136.0 L 518.0,135.5 L 517.5,135.0 L 517.5,126.0 L 518.0,125.5 L 518.5,125.0 L 519.5,119.0 L 523.0,115.5 L 530.0,115.5 L 533.5,119.0 L 535.5,124.0 Z M 407.5,201.0 L 404.0,197.5 L 401.0,198.5 L 400.5,198.0 L 400.0,197.5 L 395.5,202.0 L 393.0,209.5 L 390.5,203.0 L 386.0,198.5 L 382.0,197.5 L 378.5,201.0 L 380.5,208.0 L 386.5,221.0 L 386.5,222.0 L 386.5,223.0 L 390.0,226.5 L 396.0,226.5 L 399.5,223.0 L 400.5,218.0 L 403.5,213.0 Z M 328.0,51.5 L 321.0,52.5 L 310.0,57.5 L 302.0,65.5 L 295.0,62.5 L 283.0,61.5 L 282.5,62.0 L 282.0,62.5 L 277.0,62.5 L 276.5,63.0 L 276.0,63.5 L 272.0,63.5 L 267.0,65.5 L 263.0,65.5 L 257.0,67.5 L 255.0,69.5 L 248.5,59.0 L 243.0,53.5 L 234.0,48.5 L 228.0,47.5 L 227.5,47.0 L 227.0,46.5 L 219.0,46.5 L 218.5,47.0 L 218.0,47.5 L 211.0,48.5 L 204.0,52.5 L 193.5,63.0 L 193.5,64.0 L 193.5,65.0 L 197.0,68.5 L 199.0,69.5 L 207.0,61.5 L 212.0,58.5 L 218.0,57.5 L 218.5,57.0 L 219.0,56.5 L 227.0,56.5 L 239.0,61.5 L 242.5,66.0 L 243.5,70.0 L 248.0,74.5 L 250.0,75.5 L 253.0,73.5 L 257.0,77.5 L 260.0,77.5 L 272.0,73.5 L 282.0,72.5 L 282.5,72.0 L 283.0,71.5 L 290.0,71.5 L 290.5,72.0 L 291.0,72.5 L 295.0,72.5 L 304.0,75.5 L 314.0,65.5 L 318.0,63.5 L 324.0,62.5 L 324.5,62.0 L 325.0,61.5 L 340.0,61.5 L 349.0,64.5 L 355.5,70.0 L 358.5,76.0 L 359.5,82.0 L 364.0,86.5 L 370.0,85.5 L 370.5,85.0 L 371.0,84.5 L 383.0,84.5 L 389.0,86.5 L 395.0,90.5 L 403.0,85.5 L 415.0,83.5 L 415.5,84.0 L 416.0,84.5 L 425.0,85.5 L 435.0,90.5 L 436.0,90.5 L 437.0,90.5 L 441.0,87.5 L 450.0,84.5 L 464.0,84.5 L 477.0,89.5 L 483.0,94.5 L 487.0,91.5 L 491.0,95.5 L 499.0,89.5 L 509.0,85.5 L 517.0,84.5 L 517.5,84.0 L 518.0,83.5 L 529.0,83.5 L 533.5,78.0 L 529.0,73.5 L 514.0,74.5 L 513.5,75.0 L 513.0,75.5 L 509.0,75.5 L 500.0,78.5 L 488.0,86.5 L 478.0,79.5 L 465.0,74.5 L 452.0,74.5 L 451.5,75.0 L 451.0,75.5 L 447.0,75.5 L 441.0,77.5 L 436.0,80.5 L 429.0,76.5 L 426.0,76.5 L 421.0,74.5 L 408.0,74.5 L 407.5,75.0 L 407.0,75.5 L 404.0,75.5 L 398.0,77.5 L 396.0,79.5 L 395.0,79.5 L 394.0,79.5 L 392.0,77.5 L 386.0,75.5 L 382.0,75.5 L 381.5,75.0 L 381.0,74.5 L 368.0,75.5 L 363.5,66.0 L 356.0,58.5 L 350.0,54.5 L 341.0,51.5 Z M 444.5,146.0 L 444.5,124.0 L 443.0,120.5 L 439.0,120.5 L 437.5,124.0 L 437.5,153.0 L 440.5,159.0 L 434.0,165.5 L 430.0,167.5 L 416.0,168.5 L 411.0,166.5 L 403.5,159.0 L 401.5,154.0 L 401.5,122.0 L 400.0,120.5 L 397.0,120.5 L 395.5,122.0 L 395.5,156.0 L 397.5,158.0 L 397.5,159.0 L 397.5,160.0 L 393.0,164.5 L 386.0,167.5 L 383.0,167.5 L 382.5,168.0 L 382.0,168.5 L 373.0,168.5 L 372.5,168.0 L 372.0,167.5 L 369.0,167.5 L 367.0,166.5 L 358.5,157.0 L 358.5,110.0 L 353.5,103.0 L 359.0,97.5 L 369.0,93.5 L 382.0,93.5 L 385.0,94.5 L 394.0,102.5 L 399.0,97.5 L 404.0,94.5 L 416.0,92.5 L 416.5,93.0 L 417.0,93.5 L 421.0,93.5 L 426.0,95.5 L 429.0,97.5 L 434.0,103.5 L 439.0,100.5 L 443.0,96.5 L 450.0,93.5 L 464.0,93.5 L 467.0,94.5 L 478.5,105.0 L 480.5,110.0 L 480.5,153.0 L 484.5,158.0 L 477.0,165.5 L 472.0,167.5 L 469.0,167.5 L 468.5,168.0 L 468.0,168.5 L 459.0,168.5 L 458.5,168.0 L 458.0,167.5 L 455.0,167.5 L 453.0,166.5 L 444.5,157.0 Z M 490.0,223.5 L 489.5,201.0 L 493.0,197.5 L 508.0,197.5 L 512.5,202.0 L 512.5,203.0 L 512.5,204.0 L 508.5,208.0 L 510.5,211.0 L 510.5,214.0 L 508.5,216.0 L 512.5,220.0 L 512.5,223.0 L 509.0,226.5 L 493.0,226.5 Z M 168.5,131.0 L 175.5,115.0 L 175.5,112.0 L 178.5,103.0 L 178.5,99.0 L 179.0,98.5 L 179.5,98.0 L 179.5,82.0 L 179.0,81.5 L 178.5,81.0 L 178.5,77.0 L 173.5,68.0 L 169.0,63.5 L 164.0,60.5 L 158.0,58.5 L 155.0,58.5 L 153.5,57.0 L 154.0,56.5 L 155.0,56.5 L 157.5,53.0 L 156.5,49.0 L 154.0,46.5 L 146.0,41.5 L 139.0,40.5 L 138.5,40.0 L 138.0,39.5 L 120.0,39.5 L 119.5,40.0 L 119.0,40.5 L 114.0,40.5 L 99.0,45.5 L 84.0,53.5 L 77.0,58.5 L 65.5,69.0 L 57.5,79.0 L 50.5,90.0 L 44.5,105.0 L 44.5,108.0 L 42.5,113.0 L 42.5,118.0 L 42.0,118.5 L 41.5,119.0 L 41.5,134.0 L 42.0,134.5 L 42.5,135.0 L 43.5,144.0 L 45.5,150.0 L 51.5,162.0 L 54.5,166.0 L 63.0,174.5 L 75.0,181.5 L 81.0,183.5 L 87.0,183.5 L 87.5,184.0 L 88.0,184.5 L 98.0,184.5 L 105.5,201.0 L 111.5,209.0 L 118.0,214.5 L 127.0,218.5 L 138.0,218.5 L 146.0,215.5 L 153.0,210.5 L 158.5,205.0 L 164.5,195.0 L 165.5,189.0 L 166.0,188.5 L 166.5,188.0 L 166.5,178.0 L 164.0,174.5 L 161.0,174.5 L 157.0,178.5 L 153.0,180.5 L 145.0,181.5 L 144.5,181.0 L 144.0,180.5 L 141.0,180.5 L 135.0,178.5 L 131.0,176.5 L 129.5,174.0 L 133.0,172.5 L 141.0,166.5 L 151.5,156.0 L 156.5,150.0 Z M 220.0,139.5 L 218.0,143.5 L 212.0,143.5 L 209.5,140.0 L 208.5,137.0 L 208.5,124.0 L 211.0,118.5 L 216.0,117.5 L 218.0,118.5 L 220.5,122.0 L 221.5,134.0 L 221.0,134.5 L 220.5,135.0 Z M 580.0,104.5 L 584.5,109.0 L 586.5,115.0 L 586.5,118.0 L 587.0,118.5 L 587.5,119.0 L 587.5,125.0 L 588.0,125.5 L 588.5,126.0 L 587.5,140.0 L 587.0,140.5 L 586.5,141.0 L 586.5,145.0 L 583.5,151.0 L 583.5,152.0 L 583.5,153.0 L 575.5,165.0 L 567.0,173.5 L 560.0,178.5 L 544.0,185.5 L 532.0,186.5 L 531.5,187.0 L 531.0,187.5 L 513.0,186.5 L 512.5,186.0 L 512.0,185.5 L 508.0,185.5 L 499.0,182.5 L 491.0,178.5 L 480.0,184.5 L 477.0,184.5 L 473.0,186.5 L 466.0,186.5 L 465.5,187.0 L 465.0,187.5 L 454.0,186.5 L 448.0,184.5 L 443.0,181.5 L 434.0,185.5 L 424.0,186.5 L 423.5,187.0 L 423.0,187.5 L 407.0,185.5 L 404.0,183.5 L 403.0,183.5 L 402.0,183.5 L 400.0,181.5 L 397.0,183.5 L 391.0,185.5 L 388.0,185.5 L 387.5,186.0 L 387.0,186.5 L 368.0,186.5 L 367.5,186.0 L 367.0,185.5 L 361.0,184.5 L 356.0,181.5 L 347.0,185.5 L 337.0,186.5 L 336.5,187.0 L 336.0,187.5 L 324.0,186.5 L 323.5,186.0 L 323.0,185.5 L 317.0,184.5 L 313.0,181.5 L 310.0,181.5 L 307.0,183.5 L 297.0,185.5 L 296.5,186.0 L 296.0,186.5 L 282.0,187.5 L 281.5,187.0 L 281.0,186.5 L 275.0,186.5 L 263.0,181.5 L 255.0,173.5 L 248.0,178.5 L 238.0,183.5 L 228.0,185.5 L 227.5,186.0 L 227.0,186.5 L 208.0,187.5 L 207.5,187.0 L 207.0,186.5 L 200.0,186.5 L 199.5,186.0 L 199.0,185.5 L 196.0,185.5 L 190.0,183.5 L 189.5,188.0 L 189.0,188.5 L 188.5,189.0 L 188.5,194.0 L 185.5,203.0 L 180.5,213.0 L 171.5,224.0 L 160.0,233.5 L 150.0,238.5 L 144.0,240.5 L 139.0,240.5 L 138.5,241.0 L 138.0,241.5 L 122.0,240.5 L 108.0,234.5 L 94.5,223.0 L 86.5,212.0 L 85.5,208.0 L 84.0,206.5 L 76.0,205.5 L 67.0,202.5 L 51.0,193.5 L 34.5,177.0 L 28.5,168.0 L 24.5,160.0 L 21.5,151.0 L 21.5,148.0 L 19.5,143.0 L 19.5,137.0 L 19.0,136.5 L 18.5,136.0 L 18.5,117.0 L 19.0,116.5 L 19.5,116.0 L 19.5,110.0 L 20.0,109.5 L 20.5,109.0 L 20.5,105.0 L 22.5,101.0 L 23.5,95.0 L 32.5,76.0 L 40.5,64.0 L 46.5,58.0 L 46.5,57.0 L 64.0,40.5 L 79.0,30.5 L 89.0,25.5 L 90.0,25.5 L 91.0,25.5 L 94.0,23.5 L 95.0,23.5 L 96.0,23.5 L 105.0,19.5 L 113.0,18.5 L 113.5,18.0 L 114.0,17.5 L 121.0,17.5 L 121.5,17.0 L 122.0,16.5 L 137.0,16.5 L 137.5,17.0 L 138.0,17.5 L 143.0,17.5 L 143.5,18.0 L 144.0,18.5 L 154.0,20.5 L 160.0,23.5 L 167.0,28.5 L 174.5,36.0 L 177.5,40.0 L 180.5,48.0 L 176.0,52.5 L 175.0,52.5 L 174.0,52.5 L 170.5,49.0 L 167.5,42.0 L 162.0,35.5 L 153.0,30.5 L 147.0,28.5 L 144.0,28.5 L 143.5,28.0 L 143.0,27.5 L 139.0,27.5 L 138.5,27.0 L 138.0,26.5 L 119.0,26.5 L 118.5,27.0 L 118.0,27.5 L 113.0,27.5 L 112.5,28.0 L 112.0,28.5 L 109.0,28.5 L 108.5,29.0 L 108.0,29.5 L 105.0,29.5 L 96.0,32.5 L 83.0,38.5 L 69.0,47.5 L 52.5,63.0 L 42.5,77.0 L 39.5,84.0 L 37.5,86.0 L 29.5,110.0 L 29.5,115.0 L 29.0,115.5 L 28.5,116.0 L 28.5,138.0 L 29.0,138.5 L 29.5,139.0 L 29.5,143.0 L 30.0,143.5 L 30.5,144.0 L 31.5,151.0 L 35.5,159.0 L 35.5,160.0 L 35.5,161.0 L 43.5,174.0 L 50.0,181.5 L 58.0,187.5 L 67.0,192.5 L 79.0,196.5 L 89.0,197.5 L 92.5,201.0 L 92.5,202.0 L 92.5,203.0 L 97.5,213.0 L 107.0,223.5 L 118.0,229.5 L 124.0,230.5 L 124.5,231.0 L 125.0,231.5 L 141.0,231.5 L 141.5,231.0 L 142.0,230.5 L 148.0,229.5 L 161.0,222.5 L 167.5,216.0 L 173.5,207.0 L 177.5,198.0 L 177.5,195.0 L 179.5,190.0 L 179.5,181.0 L 186.0,173.5 L 190.0,173.5 L 194.0,175.5 L 203.0,176.5 L 203.5,177.0 L 204.0,177.5 L 224.0,177.5 L 224.5,177.0 L 225.0,176.5 L 228.0,176.5 L 228.5,176.0 L 229.0,175.5 L 232.0,175.5 L 238.0,173.5 L 249.0,167.5 L 254.0,162.5 L 255.0,162.5 L 256.0,162.5 L 264.0,171.5 L 272.0,175.5 L 279.0,176.5 L 279.5,177.0 L 280.0,177.5 L 292.0,177.5 L 292.5,177.0 L 293.0,176.5 L 297.0,176.5 L 297.5,176.0 L 298.0,175.5 L 304.0,174.5 L 311.0,170.5 L 320.0,175.5 L 327.0,176.5 L 327.5,177.0 L 328.0,177.5 L 344.0,176.5 L 350.0,174.5 L 355.0,171.5 L 356.0,171.5 L 357.0,171.5 L 364.0,175.5 L 372.0,176.5 L 372.5,177.0 L 373.0,177.5 L 388.0,176.5 L 397.0,173.5 L 399.0,171.5 L 400.0,171.5 L 401.0,171.5 L 407.0,175.5 L 414.0,176.5 L 414.5,177.0 L 415.0,177.5 L 427.0,177.5 L 427.5,177.0 L 428.0,176.5 L 432.0,176.5 L 438.0,173.5 L 439.0,173.5 L 440.0,173.5 L 442.0,171.5 L 443.0,171.5 L 444.0,171.5 L 454.0,176.5 L 468.0,177.5 L 468.5,177.0 L 469.0,176.5 L 474.0,176.5 L 480.0,174.5 L 486.0,171.5 L 490.0,167.5 L 491.0,167.5 L 492.0,167.5 L 498.0,171.5 L 502.0,172.5 L 505.0,174.5 L 511.0,175.5 L 511.5,176.0 L 512.0,176.5 L 517.0,176.5 L 517.5,177.0 L 518.0,177.5 L 535.0,177.5 L 535.5,177.0 L 536.0,176.5 L 544.0,175.5 L 558.0,169.5 L 567.5,161.0 L 571.5,155.0 L 576.5,143.0 L 577.5,132.0 L 578.0,131.5 L 578.5,131.0 L 577.5,120.0 L 573.5,109.0 L 578.0,104.5 L 579.0,104.5 Z M 562.0,113.5 L 559.5,109.0 L 554.0,103.5 L 542.0,97.5 L 533.0,96.5 L 532.5,96.0 L 532.0,95.5 L 521.0,95.5 L 520.5,96.0 L 520.0,96.5 L 515.0,96.5 L 509.0,98.5 L 500.0,103.5 L 494.5,109.0 L 489.5,118.0 L 488.5,125.0 L 488.0,125.5 L 487.5,126.0 L 487.5,136.0 L 488.0,136.5 L 488.5,137.0 L 489.5,144.0 L 494.5,153.0 L 499.0,157.5 L 507.0,162.5 L 513.0,164.5 L 516.0,164.5 L 516.5,165.0 L 517.0,165.5 L 534.0,165.5 L 534.5,165.0 L 535.0,164.5 L 542.0,163.5 L 553.0,157.5 L 560.5,150.0 L 564.5,142.0 L 565.5,135.0 L 566.0,134.5 L 566.5,134.0 L 566.5,127.0 L 566.0,126.5 L 565.5,126.0 L 565.5,121.0 Z M 225.0,65.5 L 230.0,67.5 L 234.5,72.0 L 235.5,74.0 L 235.5,78.0 L 227.0,86.5 L 219.0,90.5 L 213.5,92.0 L 228.0,93.5 L 240.0,98.5 L 250.5,108.0 L 254.5,114.0 L 257.5,123.0 L 257.5,136.0 L 257.0,136.5 L 256.5,137.0 L 255.5,143.0 L 251.5,151.0 L 241.0,161.5 L 234.0,165.5 L 228.0,167.5 L 224.0,167.5 L 223.5,168.0 L 223.0,168.5 L 206.0,168.5 L 205.5,168.0 L 205.0,167.5 L 201.0,167.5 L 195.0,165.5 L 188.0,161.5 L 178.5,152.0 L 173.5,142.0 L 172.0,129.5 L 167.5,138.0 L 154.5,156.0 L 141.0,169.5 L 134.5,174.0 L 134.5,175.0 L 135.0,175.5 L 141.0,177.5 L 149.0,178.5 L 157.0,175.5 L 161.0,171.5 L 164.0,171.5 L 169.5,178.0 L 169.5,188.0 L 165.5,199.0 L 161.5,205.0 L 153.0,213.5 L 146.0,218.5 L 138.0,221.5 L 127.0,221.5 L 118.0,217.5 L 114.0,214.5 L 104.5,204.0 L 96.0,187.5 L 81.0,186.5 L 67.0,180.5 L 63.0,177.5 L 48.5,162.0 L 42.5,150.0 L 40.5,144.0 L 40.5,141.0 L 40.0,140.5 L 39.5,140.0 L 39.5,135.0 L 39.0,134.5 L 38.5,134.0 L 38.5,119.0 L 39.0,118.5 L 39.5,118.0 L 39.5,113.0 L 40.0,112.5 L 40.5,112.0 L 40.5,109.0 L 41.0,108.5 L 41.5,108.0 L 41.5,105.0 L 43.5,99.0 L 50.5,85.0 L 62.5,69.0 L 77.0,55.5 L 91.0,46.5 L 99.0,42.5 L 114.0,37.5 L 119.0,37.5 L 119.5,37.0 L 120.0,36.5 L 138.0,36.5 L 138.5,37.0 L 139.0,37.5 L 143.0,37.5 L 154.0,43.5 L 159.5,49.0 L 160.5,53.0 L 158.5,56.0 L 164.0,57.5 L 169.0,60.5 L 176.5,68.0 L 181.5,77.0 L 181.5,81.0 L 182.0,81.5 L 182.5,82.0 L 182.5,98.0 L 180.5,104.0 L 181.0,107.5 L 190.0,98.5 L 199.0,94.5 L 208.0,93.5 L 208.5,93.0 L 208.0,92.5 L 202.0,92.5 L 196.5,87.0 L 204.0,79.5 L 205.0,79.5 L 217.0,66.5 L 219.0,65.5 Z M 462.5,212.0 L 462.5,206.0 L 461.0,204.5 L 456.0,205.5 L 456.0,200.5 L 474.5,201.0 L 474.5,204.0 L 473.0,205.5 L 472.5,205.0 L 472.0,204.5 L 469.0,204.5 L 467.5,206.0 L 467.0,223.5 L 462.5,223.0 Z M 140.0,108.5 L 138.5,116.0 L 135.5,125.0 L 133.5,128.0 L 133.5,129.0 L 133.5,130.0 L 122.5,148.0 L 114.0,153.5 L 106.0,153.5 L 102.0,151.5 L 97.5,145.0 L 95.5,139.0 L 95.5,136.0 L 95.0,135.5 L 94.5,135.0 L 94.5,111.0 L 95.0,110.5 L 95.5,110.0 L 96.5,102.0 L 100.5,93.0 L 100.5,92.0 L 100.5,91.0 L 108.5,77.0 L 111.0,74.5 L 111.5,75.0 L 110.5,82.0 L 110.0,82.5 L 109.5,83.0 L 111.5,90.0 L 116.0,94.5 L 121.0,96.5 L 122.0,96.5 L 123.0,96.5 L 129.5,90.0 L 129.5,86.0 L 131.0,84.5 L 134.0,83.5 L 138.0,84.5 L 140.5,90.0 Z M 248.5,64.0 L 251.5,69.0 L 251.5,70.0 L 251.5,71.0 L 250.0,72.5 L 246.5,70.0 L 245.5,66.0 L 239.0,58.5 L 231.0,54.5 L 228.0,54.5 L 227.5,54.0 L 227.0,53.5 L 219.0,53.5 L 210.0,56.5 L 199.0,66.5 L 196.5,65.0 L 196.5,64.0 L 196.5,63.0 L 204.0,55.5 L 211.0,51.5 L 218.0,50.5 L 218.5,50.0 L 219.0,49.5 L 227.0,49.5 L 227.5,50.0 L 228.0,50.5 L 234.0,51.5 L 243.0,56.5 Z M 337.0,165.5 L 345.0,163.5 L 351.5,159.0 L 351.5,158.0 L 351.5,157.0 L 347.5,153.0 L 347.5,107.0 L 345.5,102.0 L 339.0,97.5 L 336.0,96.5 L 326.0,96.5 L 325.5,97.0 L 325.0,97.5 L 319.0,98.5 L 312.5,103.0 L 316.5,109.0 L 316.5,154.0 L 318.5,159.0 L 323.0,163.5 L 328.0,165.5 Z M 462.5,226.0 L 467.0,226.5 L 470.5,223.0 L 470.5,208.0 L 471.0,207.5 L 472.0,207.5 L 472.5,208.0 L 473.0,208.5 L 477.5,204.0 L 477.5,201.0 L 474.0,197.5 L 456.0,197.5 L 452.5,201.0 L 452.5,205.0 L 456.0,208.5 L 459.5,208.0 L 459.5,223.0 Z M 278.0,223.5 L 285.0,223.5 L 287.0,222.5 L 289.5,219.0 L 289.5,215.0 L 286.0,211.5 L 280.0,210.5 L 276.5,208.0 L 279.0,204.5 L 283.0,204.5 L 287.0,206.5 L 288.5,203.0 L 284.0,200.5 L 278.0,200.5 L 274.0,202.5 L 271.5,206.0 L 271.5,209.0 L 275.0,213.5 L 282.0,214.5 L 284.5,217.0 L 282.0,220.5 L 276.0,219.5 L 274.0,217.5 L 271.5,221.0 L 276.0,223.5 L 277.0,223.5 Z M 405.0,97.5 L 399.0,100.5 L 394.5,105.0 L 392.0,109.5 L 390.5,102.0 L 387.0,98.5 L 382.0,96.5 L 369.0,96.5 L 359.0,100.5 L 356.5,103.0 L 357.5,105.0 L 360.5,107.0 L 361.5,110.0 L 361.5,157.0 L 367.0,163.5 L 373.0,165.5 L 382.0,165.5 L 382.5,165.0 L 383.0,164.5 L 389.0,163.5 L 394.5,160.0 L 394.5,159.0 L 394.5,158.0 L 392.5,156.0 L 392.5,122.0 L 396.0,117.5 L 401.0,117.5 L 404.5,122.0 L 404.5,154.0 L 406.5,159.0 L 413.0,164.5 L 416.0,165.5 L 430.0,164.5 L 434.0,162.5 L 437.5,159.0 L 434.5,153.0 L 434.5,124.0 L 435.5,121.0 L 439.0,117.5 L 443.0,117.5 L 445.0,118.5 L 447.5,124.0 L 447.5,157.0 L 453.0,163.5 L 459.0,165.5 L 468.0,165.5 L 477.0,162.5 L 481.5,158.0 L 477.5,153.0 L 477.5,110.0 L 475.5,105.0 L 469.0,98.5 L 464.0,96.5 L 450.0,96.5 L 443.0,99.5 L 438.0,103.5 L 434.0,108.5 L 430.5,102.0 L 424.0,97.5 L 417.0,96.5 L 416.5,96.0 L 416.0,95.5 Z M 385.0,201.5 L 382.0,200.5 L 381.5,201.0 L 381.5,202.0 L 385.5,211.0 L 385.5,212.0 L 385.5,213.0 L 387.5,216.0 L 387.5,217.0 L 387.5,218.0 L 389.5,221.0 L 389.5,222.0 L 389.5,223.0 L 396.0,223.5 L 404.5,201.0 L 402.0,200.5 L 401.5,201.0 L 401.0,201.5 L 400.5,201.0 L 400.0,200.5 L 398.5,202.0 L 396.5,210.0 L 393.0,216.5 L 391.5,215.0 L 387.5,203.0 Z M 517.0,77.5 L 509.0,78.5 L 500.0,81.5 L 490.0,87.5 L 488.5,90.0 L 491.0,92.5 L 499.0,86.5 L 509.0,82.5 L 517.0,81.5 L 517.5,81.0 L 518.0,80.5 L 529.0,80.5 L 530.5,78.0 L 529.0,76.5 L 521.0,76.5 L 520.5,77.0 L 520.0,77.5 Z M 407.0,78.5 L 404.0,78.5 L 398.0,80.5 L 396.0,82.5 L 381.0,77.5 L 373.0,77.5 L 367.0,79.5 L 365.5,78.0 L 362.5,69.0 L 356.0,61.5 L 350.0,57.5 L 341.0,54.5 L 325.0,54.5 L 324.5,55.0 L 324.0,55.5 L 318.0,56.5 L 310.0,60.5 L 302.0,68.5 L 295.0,65.5 L 283.0,64.5 L 282.5,65.0 L 282.0,65.5 L 277.0,65.5 L 276.5,66.0 L 276.0,66.5 L 272.0,66.5 L 267.0,68.5 L 263.0,68.5 L 257.0,70.5 L 255.5,72.0 L 257.0,74.5 L 260.0,74.5 L 272.0,70.5 L 282.0,69.5 L 282.5,69.0 L 283.0,68.5 L 290.0,68.5 L 290.5,69.0 L 291.0,69.5 L 295.0,69.5 L 304.0,72.5 L 310.0,65.5 L 318.0,60.5 L 324.0,59.5 L 324.5,59.0 L 325.0,58.5 L 340.0,58.5 L 349.0,61.5 L 358.5,70.0 L 361.5,76.0 L 362.5,82.0 L 364.0,83.5 L 370.0,82.5 L 370.5,82.0 L 371.0,81.5 L 383.0,81.5 L 389.0,83.5 L 395.0,87.5 L 403.0,82.5 L 415.0,80.5 L 415.5,81.0 L 416.0,81.5 L 425.0,82.5 L 435.0,87.5 L 436.0,87.5 L 437.0,87.5 L 441.0,84.5 L 450.0,81.5 L 464.0,81.5 L 477.0,86.5 L 483.0,91.5 L 485.5,89.0 L 484.0,86.5 L 478.0,82.5 L 469.0,78.5 L 466.0,78.5 L 465.5,78.0 L 465.0,77.5 L 452.0,77.5 L 451.5,78.0 L 451.0,78.5 L 447.0,78.5 L 441.0,80.5 L 436.0,83.5 L 429.0,79.5 L 426.0,79.5 L 421.0,77.5 L 408.0,77.5 L 407.5,78.0 Z M 223.5,123.0 L 221.5,118.0 L 219.0,115.5 L 216.0,114.5 L 211.0,115.5 L 206.5,121.0 L 205.5,124.0 L 205.5,137.0 L 207.5,142.0 L 212.0,146.5 L 218.0,146.5 L 221.5,143.0 L 223.5,139.0 L 223.5,135.0 L 224.0,134.5 L 224.5,134.0 Z M 97.0,149.5 L 94.5,145.0 L 92.5,139.0 L 92.5,136.0 L 92.0,135.5 L 91.5,135.0 L 91.5,111.0 L 92.0,110.5 L 92.5,110.0 L 92.5,106.0 L 93.0,105.5 L 93.5,105.0 L 93.5,102.0 L 95.5,96.0 L 101.5,83.0 L 109.5,72.0 L 120.0,63.5 L 130.0,59.5 L 130.5,60.0 L 128.0,62.5 L 122.0,65.5 L 117.5,70.0 L 114.5,75.0 L 112.5,84.0 L 114.5,90.0 L 121.0,93.5 L 122.0,93.5 L 123.0,93.5 L 126.5,90.0 L 126.5,86.0 L 131.0,81.5 L 136.0,80.5 L 141.5,85.0 L 143.5,90.0 L 143.5,108.0 L 143.0,108.5 L 142.5,109.0 L 142.5,112.0 L 142.0,112.5 L 141.5,113.0 L 141.5,116.0 L 138.5,125.0 L 133.5,136.0 L 128.5,144.0 L 125.5,148.0 L 118.0,154.5 L 114.0,156.5 L 106.0,156.5 L 102.0,154.5 Z M 317.0,200.5 L 312.0,201.5 L 308.5,204.0 L 305.5,210.0 L 305.5,215.0 L 307.5,219.0 L 311.0,222.5 L 318.0,224.5 L 324.0,222.5 L 328.5,218.0 L 329.5,216.0 L 329.5,209.0 L 325.0,202.5 L 321.0,200.5 Z M 231.5,79.0 L 227.0,83.5 L 213.0,89.5 L 202.0,89.5 L 199.5,87.0 L 205.0,82.5 L 217.0,69.5 L 219.0,68.5 L 226.0,68.5 L 230.0,70.5 L 232.5,74.0 L 232.5,78.0 L 232.0,78.5 Z M 524.0,143.5 L 529.0,143.5 L 531.5,141.0 L 532.5,138.0 L 532.5,124.0 L 530.0,118.5 L 523.0,118.5 L 520.5,126.0 L 520.5,135.0 L 521.0,135.5 L 521.5,136.0 L 521.5,140.0 Z M 567.5,120.0 L 568.0,120.5 L 568.5,121.0 L 568.5,126.0 L 569.0,126.5 L 569.5,127.0 L 569.5,134.0 L 569.0,134.5 L 568.5,135.0 L 567.5,142.0 L 563.5,150.0 L 553.0,160.5 L 539.0,167.5 L 535.0,167.5 L 534.5,168.0 L 534.0,168.5 L 517.0,168.5 L 516.5,168.0 L 516.0,167.5 L 513.0,167.5 L 507.0,165.5 L 499.0,160.5 L 491.5,153.0 L 485.5,141.0 L 485.5,137.0 L 485.0,136.5 L 484.5,136.0 L 484.5,126.0 L 485.0,125.5 L 485.5,125.0 L 486.5,118.0 L 489.5,112.0 L 500.0,100.5 L 509.0,95.5 L 515.0,93.5 L 532.0,92.5 L 532.5,93.0 L 533.0,93.5 L 542.0,94.5 L 551.0,98.5 L 562.5,109.0 L 567.5,118.0 L 567.5,119.0 Z M 303.0,162.5 L 300.0,165.5 L 296.0,167.5 L 293.0,167.5 L 292.5,168.0 L 292.0,168.5 L 282.0,168.5 L 274.0,165.5 L 264.5,155.0 L 262.5,149.0 L 262.5,118.0 L 256.5,113.0 L 255.5,110.0 L 257.5,105.0 L 260.5,102.0 L 262.5,98.0 L 262.5,88.0 L 268.0,83.5 L 276.0,82.5 L 276.5,82.0 L 277.0,81.5 L 285.0,80.5 L 285.5,80.0 L 286.0,79.5 L 292.0,80.5 L 298.5,87.0 L 298.5,96.0 L 304.0,96.5 L 308.5,101.0 L 308.5,110.0 L 307.5,113.0 L 304.0,116.5 L 298.5,117.0 L 298.5,145.0 L 300.0,146.5 L 303.0,146.5 L 303.5,146.0 L 304.0,145.5 L 309.5,151.0 L 309.5,155.0 L 308.5,157.0 Z M 435.0,210.5 L 436.0,210.5 L 436.5,211.0 L 436.5,214.0 L 427.0,214.5 L 426.5,219.0 L 428.0,220.5 L 428.5,220.0 L 429.0,219.5 L 438.0,219.5 L 438.0,223.5 L 421.5,223.0 L 422.0,200.5 L 438.0,200.5 L 438.5,204.0 L 437.0,205.5 L 426.5,206.0 L 427.0,210.5 Z M 365.0,201.5 L 363.0,199.5 L 358.0,197.5 L 348.0,197.5 L 343.5,202.0 L 344.0,202.5 L 344.5,203.0 L 344.5,212.0 L 344.0,212.5 L 343.5,213.0 L 344.5,216.0 L 344.0,216.5 L 343.5,217.0 L 343.5,220.0 L 344.0,220.5 L 344.5,221.0 L 344.0,221.5 L 343.5,222.0 L 348.0,226.5 L 351.0,226.5 L 354.5,223.0 L 355.0,219.5 L 361.0,226.5 L 365.0,226.5 L 368.5,223.0 L 364.5,217.0 L 368.5,212.0 L 368.5,206.0 Z M 316.5,205.0 L 314.0,205.5 L 311.5,208.0 L 310.5,215.0 L 314.0,219.5 L 318.0,220.5 L 323.5,217.0 L 324.5,215.0 L 324.5,210.0 L 321.0,205.5 Z M 492.5,212.0 L 493.0,200.5 L 508.0,200.5 L 509.5,202.0 L 509.5,203.0 L 509.5,204.0 L 508.0,205.5 L 499.0,204.5 L 497.5,206.0 L 498.0,210.5 L 507.5,211.0 L 507.0,214.5 L 498.0,214.5 L 497.5,220.0 L 509.0,219.5 L 509.5,223.0 L 493.0,223.5 Z M 542.0,198.5 L 540.0,197.5 L 534.0,197.5 L 530.0,199.5 L 524.5,206.0 L 525.5,211.0 L 529.5,215.0 L 524.5,221.0 L 531.0,226.5 L 541.0,226.5 L 548.5,220.0 L 548.5,214.0 L 543.5,209.0 L 546.5,206.0 L 547.5,203.0 Z M 439.5,225.0 L 441.5,223.0 L 441.5,220.0 L 437.5,216.0 L 439.5,214.0 L 439.5,211.0 L 437.5,208.0 L 441.5,204.0 L 441.5,201.0 L 438.0,197.5 L 422.0,197.5 L 418.5,201.0 L 418.5,223.0 L 422.0,226.5 L 438.0,226.5 Z M 532.0,223.5 L 541.0,223.5 L 545.5,220.0 L 545.5,214.0 L 543.0,211.5 L 533.5,209.0 L 533.5,206.0 L 535.0,204.5 L 539.0,204.5 L 542.0,206.5 L 543.0,206.5 L 543.5,206.0 L 544.5,203.0 L 540.0,200.5 L 534.0,200.5 L 530.0,202.5 L 527.5,206.0 L 527.5,209.0 L 530.0,212.5 L 540.5,216.0 L 540.5,217.0 L 540.5,218.0 L 538.0,220.5 L 534.0,220.5 L 531.0,218.5 L 530.0,218.5 L 529.0,218.5 L 527.5,221.0 Z M 363.0,219.5 L 361.5,216.0 L 365.5,212.0 L 365.5,206.0 L 364.5,204.0 L 358.0,200.5 L 348.0,200.5 L 346.5,202.0 L 347.0,202.5 L 347.5,203.0 L 347.5,212.0 L 347.0,212.5 L 346.5,213.0 L 347.5,216.0 L 347.0,216.5 L 346.5,217.0 L 346.5,220.0 L 347.0,220.5 L 347.5,221.0 L 347.0,221.5 L 346.5,222.0 L 348.0,223.5 L 351.0,223.5 L 351.5,218.0 L 353.0,216.5 L 356.0,216.5 L 361.0,223.5 L 365.5,223.0 Z M 326.5,201.0 L 321.0,197.5 L 315.0,197.5 L 309.0,200.5 L 303.5,207.0 L 302.5,215.0 L 304.5,219.0 L 311.0,225.5 L 317.0,227.5 L 322.0,226.5 L 331.5,218.0 L 332.5,216.0 L 332.5,209.0 L 330.5,205.0 Z M 345.5,87.0 L 344.0,89.5 L 338.0,92.5 L 330.0,93.5 L 329.5,93.0 L 329.0,92.5 L 323.0,91.5 L 320.0,89.5 L 316.5,85.0 L 316.5,80.0 L 324.0,73.5 L 335.0,72.5 L 343.0,75.5 L 346.5,79.0 L 347.5,84.0 Z M 290.0,222.5 L 285.0,226.5 L 276.0,226.5 L 272.0,224.5 L 268.5,221.0 L 273.5,215.0 L 269.5,211.0 L 268.5,206.0 L 274.0,199.5 L 278.0,197.5 L 284.0,197.5 L 288.0,199.5 L 291.5,203.0 L 290.5,206.0 L 287.5,209.0 L 292.5,215.0 L 292.5,219.0 Z M 175.5,94.0 L 176.0,89.5 L 176.5,97.0 L 176.0,97.5 L 175.5,97.0 Z M 360.5,208.0 L 359.0,205.5 L 354.0,205.5 L 353.5,205.0 L 353.0,204.5 L 351.5,206.0 L 351.5,211.0 L 353.0,212.5 L 358.0,212.5 L 360.5,211.0 Z M 151.0,53.5 L 152.0,53.5 L 153.0,53.5 L 153.5,54.0 L 153.0,54.5 L 142.5,54.0 Z M 113.0,72.5 L 113.5,72.0 L 113.0,71.5 L 112.5,72.0 Z M 150.0,184.5 L 142.5,184.0 L 150.0,183.5 L 150.5,184.0 Z M 566.0,53.5 L 567.5,52.0 L 567.0,51.5 L 566.0,51.5 L 562.5,54.0 L 563.0,54.5 L 564.0,54.5 Z M 112.5,74.0 L 112.0,74.5 L 111.5,74.0 L 112.0,73.5 Z M 44.5,126.0 L 44.5,120.0 L 45.0,119.5 L 45.5,120.0 L 45.0,133.5 Z M 133.0,216.5 L 129.5,216.0 L 135.0,215.5 L 135.5,216.0 L 135.0,216.5 L 134.0,216.5 Z M 112.0,158.5 L 106.5,159.0 L 112.0,159.5 L 112.5,159.0 Z M 176.5,88.0 L 176.0,88.5 L 175.5,88.0 L 176.0,82.5 Z M 357.0,208.5 L 357.5,209.0 L 357.0,209.5 L 354.5,209.0 Z M 321.0,209.5 L 321.5,215.0 L 320.0,216.5 L 317.0,217.5 L 313.5,215.0 L 313.5,211.0 L 315.0,208.5 L 317.0,207.5 Z M 127.0,42.5 L 124.0,42.5 L 123.5,42.0 L 124.0,41.5 L 131.5,42.0 Z"/>
    <path fill="#FFFFFF" d="M 228.0,164.5 L 224.0,164.5 L 223.5,165.0 L 223.0,165.5 L 206.0,165.5 L 205.5,165.0 L 205.0,164.5 L 201.0,164.5 L 195.0,162.5 L 188.0,158.5 L 179.5,149.0 L 175.5,137.0 L 175.5,124.0 L 180.5,111.0 L 190.0,101.5 L 199.0,97.5 L 208.0,96.5 L 208.5,96.0 L 209.0,95.5 L 222.0,95.5 L 222.5,96.0 L 223.0,96.5 L 228.0,96.5 L 234.0,98.5 L 243.0,103.5 L 247.5,108.0 L 251.5,114.0 L 254.5,123.0 L 254.5,136.0 L 254.0,136.5 L 253.5,137.0 L 252.5,143.0 L 248.5,151.0 L 241.0,158.5 L 234.0,162.5 Z M 558.0,53.5 L 548.0,60.5 L 539.0,71.5 L 536.5,70.0 L 537.5,61.0 L 541.5,49.0 L 545.5,42.0 L 552.0,34.5 L 560.0,30.5 L 568.0,30.5 L 573.5,35.0 L 573.5,42.0 L 572.5,44.0 L 567.0,48.5 Z M 568.0,69.5 L 566.0,68.5 L 559.0,68.5 L 558.5,69.0 L 558.0,69.5 L 552.0,70.5 L 541.0,77.5 L 539.5,81.0 L 543.0,81.5 L 543.5,81.0 L 544.0,80.5 L 548.0,80.5 L 550.0,79.5 L 550.5,80.0 L 551.0,80.5 L 558.0,81.5 L 563.0,84.5 L 570.0,84.5 L 573.5,82.0 L 574.5,80.0 L 574.5,76.0 L 573.5,74.0 Z M 564.0,172.5 L 567.0,170.5 L 576.5,160.0 L 580.5,153.0 L 580.5,152.0 L 580.5,151.0 L 583.5,145.0 L 584.5,134.0 L 585.0,133.5 L 585.5,133.0 L 584.5,119.0 L 584.0,118.5 L 583.5,118.0 L 583.5,115.0 L 581.5,109.0 L 580.0,107.5 L 579.0,107.5 L 578.0,107.5 L 576.5,110.0 L 578.5,113.0 L 579.5,119.0 L 580.0,119.5 L 580.5,120.0 L 581.5,131.0 L 581.0,131.5 L 580.5,132.0 L 580.5,139.0 L 580.0,139.5 L 579.5,140.0 L 579.5,143.0 L 577.5,149.0 L 570.5,161.0 L 562.0,169.5 L 558.0,172.5 L 544.0,178.5 L 536.0,179.5 L 535.5,180.0 L 535.0,180.5 L 518.0,180.5 L 517.5,180.0 L 517.0,179.5 L 512.0,179.5 L 511.5,179.0 L 511.0,178.5 L 505.0,177.5 L 502.0,175.5 L 498.0,174.5 L 492.0,170.5 L 491.0,170.5 L 490.0,170.5 L 486.0,174.5 L 480.0,177.5 L 474.0,179.5 L 469.0,179.5 L 468.5,180.0 L 468.0,180.5 L 454.0,179.5 L 444.0,174.5 L 443.0,174.5 L 442.0,174.5 L 440.0,176.5 L 439.0,176.5 L 438.0,176.5 L 435.0,178.5 L 428.0,179.5 L 427.5,180.0 L 427.0,180.5 L 415.0,180.5 L 414.5,180.0 L 414.0,179.5 L 410.0,179.5 L 403.0,176.5 L 401.0,174.5 L 400.0,174.5 L 399.0,174.5 L 397.0,176.5 L 396.0,176.5 L 395.0,176.5 L 392.0,178.5 L 383.0,179.5 L 382.5,180.0 L 382.0,180.5 L 367.0,179.5 L 357.0,174.5 L 356.0,174.5 L 355.0,174.5 L 350.0,177.5 L 344.0,179.5 L 328.0,180.5 L 327.5,180.0 L 327.0,179.5 L 320.0,178.5 L 312.0,173.5 L 304.0,177.5 L 298.0,178.5 L 297.5,179.0 L 297.0,179.5 L 293.0,179.5 L 292.5,180.0 L 292.0,180.5 L 280.0,180.5 L 279.5,180.0 L 279.0,179.5 L 272.0,178.5 L 264.0,174.5 L 256.0,165.5 L 255.0,165.5 L 254.0,165.5 L 246.0,172.5 L 238.0,176.5 L 232.0,178.5 L 229.0,178.5 L 228.5,179.0 L 228.0,179.5 L 225.0,179.5 L 224.5,180.0 L 224.0,180.5 L 204.0,180.5 L 203.5,180.0 L 203.0,179.5 L 194.0,178.5 L 190.0,176.5 L 186.0,176.5 L 182.5,181.0 L 182.5,190.0 L 182.0,190.5 L 181.5,191.0 L 180.5,198.0 L 176.5,207.0 L 170.5,216.0 L 161.0,225.5 L 148.0,232.5 L 142.0,233.5 L 141.5,234.0 L 141.0,234.5 L 125.0,234.5 L 124.5,234.0 L 124.0,233.5 L 118.0,232.5 L 107.0,226.5 L 97.5,217.0 L 94.5,213.0 L 89.0,200.5 L 75.0,198.5 L 63.0,193.5 L 50.0,184.5 L 40.5,174.0 L 33.5,163.0 L 28.5,151.0 L 28.5,148.0 L 26.5,143.0 L 26.5,139.0 L 26.0,138.5 L 25.5,138.0 L 25.5,116.0 L 26.0,115.5 L 26.5,115.0 L 27.5,105.0 L 31.5,93.0 L 39.5,77.0 L 45.5,68.0 L 49.5,63.0 L 69.0,44.5 L 91.0,31.5 L 92.0,31.5 L 93.0,31.5 L 96.0,29.5 L 105.0,26.5 L 108.0,26.5 L 113.0,24.5 L 118.0,24.5 L 118.5,24.0 L 119.0,23.5 L 138.0,23.5 L 138.5,24.0 L 139.0,24.5 L 143.0,24.5 L 143.5,25.0 L 144.0,25.5 L 147.0,25.5 L 153.0,27.5 L 162.0,32.5 L 168.5,39.0 L 173.5,49.0 L 176.0,49.5 L 177.5,48.0 L 176.5,44.0 L 171.5,36.0 L 167.0,31.5 L 154.0,23.5 L 144.0,21.5 L 143.5,21.0 L 143.0,20.5 L 138.0,20.5 L 137.5,20.0 L 137.0,19.5 L 122.0,19.5 L 121.5,20.0 L 121.0,20.5 L 114.0,20.5 L 113.5,21.0 L 113.0,21.5 L 105.0,22.5 L 96.0,26.5 L 95.0,26.5 L 94.0,26.5 L 91.0,28.5 L 90.0,28.5 L 89.0,28.5 L 79.0,33.5 L 64.0,43.5 L 49.5,57.0 L 49.5,58.0 L 43.5,64.0 L 35.5,76.0 L 26.5,95.0 L 25.5,101.0 L 23.5,105.0 L 23.5,109.0 L 23.0,109.5 L 22.5,110.0 L 22.5,116.0 L 22.0,116.5 L 21.5,117.0 L 21.5,136.0 L 22.0,136.5 L 22.5,137.0 L 22.5,143.0 L 23.0,143.5 L 23.5,144.0 L 24.5,151.0 L 27.5,160.0 L 37.5,177.0 L 51.0,190.5 L 57.0,194.5 L 67.0,199.5 L 76.0,202.5 L 86.0,203.5 L 89.5,212.0 L 93.5,218.0 L 97.5,223.0 L 105.0,229.5 L 116.0,235.5 L 122.0,237.5 L 128.0,237.5 L 128.5,238.0 L 129.0,238.5 L 138.0,238.5 L 138.5,238.0 L 139.0,237.5 L 144.0,237.5 L 150.0,235.5 L 160.0,230.5 L 168.0,224.5 L 175.5,216.0 L 182.5,203.0 L 185.5,194.0 L 187.0,180.5 L 191.0,180.5 L 200.0,183.5 L 207.0,183.5 L 207.5,184.0 L 208.0,184.5 L 227.0,183.5 L 227.5,183.0 L 228.0,182.5 L 238.0,180.5 L 248.0,175.5 L 255.0,170.5 L 263.0,178.5 L 275.0,183.5 L 281.0,183.5 L 281.5,184.0 L 282.0,184.5 L 296.0,183.5 L 296.5,183.0 L 297.0,182.5 L 307.0,180.5 L 310.0,178.5 L 313.0,178.5 L 315.0,180.5 L 320.0,182.5 L 330.0,183.5 L 330.5,184.0 L 331.0,184.5 L 343.0,183.5 L 343.5,183.0 L 344.0,182.5 L 347.0,182.5 L 353.0,180.5 L 356.0,178.5 L 361.0,181.5 L 367.0,182.5 L 367.5,183.0 L 368.0,183.5 L 387.0,183.5 L 387.5,183.0 L 388.0,182.5 L 391.0,182.5 L 397.0,180.5 L 400.0,178.5 L 402.0,180.5 L 403.0,180.5 L 404.0,180.5 L 407.0,182.5 L 418.0,183.5 L 418.5,184.0 L 419.0,184.5 L 430.0,183.5 L 430.5,183.0 L 431.0,182.5 L 434.0,182.5 L 440.0,180.5 L 443.0,178.5 L 448.0,181.5 L 454.0,183.5 L 465.0,184.5 L 465.5,184.0 L 466.0,183.5 L 473.0,183.5 L 477.0,181.5 L 480.0,181.5 L 491.0,175.5 L 499.0,179.5 L 508.0,182.5 L 520.0,183.5 L 520.5,184.0 L 521.0,184.5 L 531.0,184.5 L 531.5,184.0 L 532.0,183.5 L 539.0,183.5 L 539.5,183.0 L 540.0,182.5 L 544.0,182.5 L 550.0,180.5 Z M 143.0,82.5 L 138.0,78.5 L 131.0,78.5 L 124.5,84.0 L 123.5,89.0 L 122.0,90.5 L 119.0,90.5 L 116.5,88.0 L 115.5,82.0 L 116.0,81.5 L 116.5,81.0 L 116.5,78.0 L 120.5,71.0 L 130.0,63.5 L 138.0,60.5 L 142.0,60.5 L 142.5,60.0 L 143.0,59.5 L 153.0,59.5 L 153.5,60.0 L 154.0,60.5 L 160.0,61.5 L 169.0,67.5 L 174.5,76.0 L 175.5,82.0 L 176.0,82.5 L 176.5,83.0 L 176.5,97.0 L 176.0,97.5 L 175.5,98.0 L 175.5,102.0 L 171.5,114.0 L 171.5,117.0 L 163.5,134.0 L 158.5,142.0 L 147.5,156.0 L 141.0,162.5 L 135.0,167.5 L 124.5,174.0 L 127.0,177.5 L 140.0,183.5 L 152.0,183.5 L 159.0,180.5 L 163.0,177.5 L 163.5,189.0 L 161.5,195.0 L 156.5,203.0 L 146.0,212.5 L 139.0,215.5 L 130.0,216.5 L 129.5,216.0 L 129.0,215.5 L 125.0,215.5 L 120.0,212.5 L 110.5,203.0 L 101.5,187.0 L 101.5,184.0 L 100.0,181.5 L 85.0,181.5 L 84.5,181.0 L 84.0,180.5 L 81.0,180.5 L 75.0,178.5 L 64.0,171.5 L 57.5,165.0 L 51.5,156.0 L 46.5,143.0 L 45.5,134.0 L 45.0,133.5 L 44.5,133.0 L 44.5,120.0 L 45.0,119.5 L 45.5,119.0 L 46.5,109.0 L 54.5,89.0 L 63.5,76.0 L 79.0,60.5 L 91.0,52.5 L 101.0,47.5 L 113.0,43.5 L 123.0,42.5 L 123.5,42.0 L 124.0,41.5 L 131.0,41.5 L 131.5,42.0 L 132.0,42.5 L 139.0,42.5 L 148.0,45.5 L 153.5,50.0 L 154.5,53.0 L 153.0,54.5 L 138.0,54.5 L 137.5,55.0 L 137.0,55.5 L 133.0,55.5 L 117.0,62.5 L 113.0,65.5 L 100.5,79.0 L 94.5,90.0 L 94.5,91.0 L 94.5,92.0 L 91.5,98.0 L 91.5,101.0 L 89.5,106.0 L 89.5,110.0 L 89.0,110.5 L 88.5,111.0 L 88.5,120.0 L 88.0,120.5 L 87.5,121.0 L 88.5,137.0 L 89.0,137.5 L 89.5,138.0 L 90.5,144.0 L 93.5,150.0 L 102.0,157.5 L 105.0,158.5 L 115.0,158.5 L 118.0,157.5 L 123.0,154.5 L 131.5,145.0 L 136.5,137.0 L 143.5,121.0 L 144.5,115.0 L 145.0,114.5 L 145.5,114.0 L 145.5,110.0 L 146.0,109.5 L 146.5,109.0 L 147.5,96.0 L 147.0,95.5 L 146.5,95.0 L 146.5,90.0 Z M 607.5,55.0 L 609.5,58.0 L 609.5,65.0 L 605.0,70.5 L 600.0,72.5 L 591.0,71.5 L 588.0,69.5 L 587.0,69.5 L 586.0,69.5 L 583.0,67.5 L 574.0,64.5 L 569.0,64.5 L 568.5,64.0 L 568.0,63.5 L 557.5,64.0 L 557.5,63.0 L 557.5,62.0 L 559.0,60.5 L 568.0,54.5 L 578.0,50.5 L 586.0,49.5 L 586.5,49.0 L 587.0,48.5 L 598.0,49.5 L 605.0,52.5 Z M 304.5,112.0 L 304.5,113.0 L 304.0,113.5 L 297.0,113.5 L 295.5,115.0 L 295.5,146.0 L 300.0,149.5 L 303.0,149.5 L 303.5,149.0 L 304.0,148.5 L 306.5,151.0 L 306.5,155.0 L 305.5,157.0 L 300.0,162.5 L 292.0,165.5 L 282.0,165.5 L 274.0,162.5 L 267.5,155.0 L 265.5,149.0 L 265.5,115.0 L 263.0,113.5 L 262.5,114.0 L 262.0,114.5 L 260.0,113.5 L 258.5,111.0 L 260.5,105.0 L 263.5,102.0 L 265.5,98.0 L 265.5,88.0 L 268.0,86.5 L 276.0,85.5 L 276.5,85.0 L 277.0,84.5 L 285.0,83.5 L 285.5,83.0 L 286.0,82.5 L 292.0,83.5 L 295.5,87.0 L 295.5,99.0 L 304.0,99.5 L 305.5,101.0 L 305.5,110.0 Z M 535.5,137.0 L 533.5,143.0 L 529.0,146.5 L 524.0,146.5 L 519.5,142.0 L 518.5,140.0 L 518.5,136.0 L 518.0,135.5 L 517.5,135.0 L 517.5,126.0 L 518.0,125.5 L 518.5,125.0 L 519.5,119.0 L 523.0,115.5 L 530.0,115.5 L 533.5,119.0 L 535.5,124.0 Z M 168.5,131.0 L 175.5,115.0 L 175.5,112.0 L 178.5,103.0 L 178.5,99.0 L 179.0,98.5 L 179.5,98.0 L 179.5,82.0 L 179.0,81.5 L 178.5,81.0 L 178.5,77.0 L 173.5,68.0 L 169.0,63.5 L 164.0,60.5 L 158.0,58.5 L 155.0,58.5 L 153.5,57.0 L 154.0,56.5 L 155.0,56.5 L 157.5,53.0 L 156.5,49.0 L 154.0,46.5 L 146.0,41.5 L 139.0,40.5 L 138.5,40.0 L 138.0,39.5 L 120.0,39.5 L 119.5,40.0 L 119.0,40.5 L 114.0,40.5 L 99.0,45.5 L 84.0,53.5 L 77.0,58.5 L 65.5,69.0 L 57.5,79.0 L 50.5,90.0 L 44.5,105.0 L 44.5,108.0 L 42.5,113.0 L 42.5,118.0 L 42.0,118.5 L 41.5,119.0 L 41.5,134.0 L 42.0,134.5 L 42.5,135.0 L 43.5,144.0 L 45.5,150.0 L 51.5,162.0 L 54.5,166.0 L 63.0,174.5 L 75.0,181.5 L 81.0,183.5 L 87.0,183.5 L 87.5,184.0 L 88.0,184.5 L 98.0,184.5 L 105.5,201.0 L 111.5,209.0 L 118.0,214.5 L 127.0,218.5 L 138.0,218.5 L 146.0,215.5 L 153.0,210.5 L 158.5,205.0 L 164.5,195.0 L 165.5,189.0 L 166.0,188.5 L 166.5,188.0 L 166.5,178.0 L 164.0,174.5 L 161.0,174.5 L 157.0,178.5 L 153.0,180.5 L 145.0,181.5 L 144.5,181.0 L 144.0,180.5 L 141.0,180.5 L 135.0,178.5 L 131.0,176.5 L 129.5,174.0 L 133.0,172.5 L 141.0,166.5 L 151.5,156.0 L 156.5,150.0 Z M 562.0,113.5 L 559.5,109.0 L 554.0,103.5 L 542.0,97.5 L 533.0,96.5 L 532.5,96.0 L 532.0,95.5 L 521.0,95.5 L 520.5,96.0 L 520.0,96.5 L 515.0,96.5 L 509.0,98.5 L 500.0,103.5 L 494.5,109.0 L 489.5,118.0 L 488.5,125.0 L 488.0,125.5 L 487.5,126.0 L 487.5,136.0 L 488.0,136.5 L 488.5,137.0 L 489.5,144.0 L 494.5,153.0 L 499.0,157.5 L 507.0,162.5 L 513.0,164.5 L 516.0,164.5 L 516.5,165.0 L 517.0,165.5 L 534.0,165.5 L 534.5,165.0 L 535.0,164.5 L 542.0,163.5 L 553.0,157.5 L 560.5,150.0 L 564.5,142.0 L 565.5,135.0 L 566.0,134.5 L 566.5,134.0 L 566.5,127.0 L 566.0,126.5 L 565.5,126.0 L 565.5,121.0 Z M 337.0,165.5 L 345.0,163.5 L 351.5,159.0 L 351.5,158.0 L 351.5,157.0 L 347.5,153.0 L 347.5,107.0 L 345.5,102.0 L 339.0,97.5 L 336.0,96.5 L 326.0,96.5 L 325.5,97.0 L 325.0,97.5 L 319.0,98.5 L 312.5,103.0 L 316.5,109.0 L 316.5,154.0 L 318.5,159.0 L 323.0,163.5 L 328.0,165.5 Z M 248.5,64.0 L 251.5,69.0 L 251.5,70.0 L 251.5,71.0 L 250.0,72.5 L 246.5,70.0 L 245.5,66.0 L 239.0,58.5 L 231.0,54.5 L 228.0,54.5 L 227.5,54.0 L 227.0,53.5 L 219.0,53.5 L 210.0,56.5 L 199.0,66.5 L 196.5,65.0 L 196.5,64.0 L 196.5,63.0 L 204.0,55.5 L 211.0,51.5 L 218.0,50.5 L 218.5,50.0 L 219.0,49.5 L 227.0,49.5 L 227.5,50.0 L 228.0,50.5 L 234.0,51.5 L 243.0,56.5 Z M 405.0,97.5 L 399.0,100.5 L 394.5,105.0 L 392.0,109.5 L 390.5,102.0 L 387.0,98.5 L 382.0,96.5 L 369.0,96.5 L 359.0,100.5 L 356.5,103.0 L 357.5,105.0 L 360.5,107.0 L 361.5,110.0 L 361.5,157.0 L 367.0,163.5 L 373.0,165.5 L 382.0,165.5 L 382.5,165.0 L 383.0,164.5 L 389.0,163.5 L 394.5,160.0 L 394.5,159.0 L 394.5,158.0 L 392.5,156.0 L 392.5,122.0 L 396.0,117.5 L 401.0,117.5 L 404.5,122.0 L 404.5,154.0 L 406.5,159.0 L 413.0,164.5 L 416.0,165.5 L 430.0,164.5 L 434.0,162.5 L 437.5,159.0 L 434.5,153.0 L 434.5,124.0 L 435.5,121.0 L 439.0,117.5 L 443.0,117.5 L 445.0,118.5 L 447.5,124.0 L 447.5,157.0 L 453.0,163.5 L 459.0,165.5 L 468.0,165.5 L 477.0,162.5 L 481.5,158.0 L 477.5,153.0 L 477.5,110.0 L 475.5,105.0 L 469.0,98.5 L 464.0,96.5 L 450.0,96.5 L 443.0,99.5 L 438.0,103.5 L 434.0,108.5 L 430.5,102.0 L 424.0,97.5 L 417.0,96.5 L 416.5,96.0 L 416.0,95.5 Z M 517.0,77.5 L 509.0,78.5 L 500.0,81.5 L 490.0,87.5 L 488.5,90.0 L 491.0,92.5 L 499.0,86.5 L 509.0,82.5 L 517.0,81.5 L 517.5,81.0 L 518.0,80.5 L 529.0,80.5 L 530.5,78.0 L 529.0,76.5 L 521.0,76.5 L 520.5,77.0 L 520.0,77.5 Z M 407.0,78.5 L 404.0,78.5 L 398.0,80.5 L 396.0,82.5 L 381.0,77.5 L 373.0,77.5 L 367.0,79.5 L 365.5,78.0 L 362.5,69.0 L 356.0,61.5 L 350.0,57.5 L 341.0,54.5 L 325.0,54.5 L 324.5,55.0 L 324.0,55.5 L 318.0,56.5 L 310.0,60.5 L 302.0,68.5 L 295.0,65.5 L 283.0,64.5 L 282.5,65.0 L 282.0,65.5 L 277.0,65.5 L 276.5,66.0 L 276.0,66.5 L 272.0,66.5 L 267.0,68.5 L 263.0,68.5 L 257.0,70.5 L 255.5,72.0 L 257.0,74.5 L 260.0,74.5 L 272.0,70.5 L 282.0,69.5 L 282.5,69.0 L 283.0,68.5 L 290.0,68.5 L 290.5,69.0 L 291.0,69.5 L 295.0,69.5 L 304.0,72.5 L 310.0,65.5 L 318.0,60.5 L 324.0,59.5 L 324.5,59.0 L 325.0,58.5 L 340.0,58.5 L 349.0,61.5 L 358.5,70.0 L 361.5,76.0 L 362.5,82.0 L 364.0,83.5 L 370.0,82.5 L 370.5,82.0 L 371.0,81.5 L 383.0,81.5 L 389.0,83.5 L 395.0,87.5 L 403.0,82.5 L 415.0,80.5 L 415.5,81.0 L 416.0,81.5 L 425.0,82.5 L 435.0,87.5 L 436.0,87.5 L 437.0,87.5 L 441.0,84.5 L 450.0,81.5 L 464.0,81.5 L 477.0,86.5 L 483.0,91.5 L 485.5,89.0 L 484.0,86.5 L 478.0,82.5 L 469.0,78.5 L 466.0,78.5 L 465.5,78.0 L 465.0,77.5 L 452.0,77.5 L 451.5,78.0 L 451.0,78.5 L 447.0,78.5 L 441.0,80.5 L 436.0,83.5 L 429.0,79.5 L 426.0,79.5 L 421.0,77.5 L 408.0,77.5 L 407.5,78.0 Z M 223.5,123.0 L 221.5,118.0 L 219.0,115.5 L 216.0,114.5 L 211.0,115.5 L 206.5,121.0 L 205.5,124.0 L 205.5,137.0 L 207.5,142.0 L 212.0,146.5 L 218.0,146.5 L 221.5,143.0 L 223.5,139.0 L 223.5,135.0 L 224.0,134.5 L 224.5,134.0 Z M 97.0,149.5 L 94.5,145.0 L 92.5,139.0 L 92.5,136.0 L 92.0,135.5 L 91.5,135.0 L 91.5,111.0 L 92.0,110.5 L 92.5,110.0 L 92.5,106.0 L 93.0,105.5 L 93.5,105.0 L 93.5,102.0 L 95.5,96.0 L 101.5,83.0 L 109.5,72.0 L 120.0,63.5 L 130.0,59.5 L 130.5,60.0 L 128.0,62.5 L 122.0,65.5 L 117.5,70.0 L 114.5,75.0 L 112.5,84.0 L 114.5,90.0 L 121.0,93.5 L 122.0,93.5 L 123.0,93.5 L 126.5,90.0 L 126.5,86.0 L 131.0,81.5 L 136.0,80.5 L 141.5,85.0 L 143.5,90.0 L 143.5,108.0 L 143.0,108.5 L 142.5,109.0 L 142.5,112.0 L 142.0,112.5 L 141.5,113.0 L 141.5,116.0 L 138.5,125.0 L 133.5,136.0 L 128.5,144.0 L 125.5,148.0 L 118.0,154.5 L 114.0,156.5 L 106.0,156.5 L 102.0,154.5 Z M 231.5,79.0 L 227.0,83.5 L 213.0,89.5 L 202.0,89.5 L 199.5,87.0 L 205.0,82.5 L 217.0,69.5 L 219.0,68.5 L 226.0,68.5 L 230.0,70.5 L 232.5,74.0 L 232.5,78.0 L 232.0,78.5 Z M 345.5,87.0 L 344.0,89.5 L 338.0,92.5 L 330.0,93.5 L 329.5,93.0 L 329.0,92.5 L 323.0,91.5 L 320.0,89.5 L 316.5,85.0 L 316.5,80.0 L 324.0,73.5 L 335.0,72.5 L 343.0,75.5 L 346.5,79.0 L 347.5,84.0 Z"/>
    <path fill="#E52023" d="M 102.5,188.0 L 104.5,193.0 L 112.5,205.0 L 119.0,211.5 L 127.0,215.5 L 138.0,215.5 L 148.0,210.5 L 157.5,201.0 L 162.5,191.0 L 162.5,188.0 L 163.0,187.5 L 163.5,187.0 L 163.0,178.5 L 154.0,183.5 L 143.0,184.5 L 142.5,184.0 L 142.0,183.5 L 136.0,182.5 L 128.0,178.5 L 124.0,175.5 L 123.5,175.0 L 123.5,174.0 L 137.0,165.5 L 150.5,152.0 L 160.5,138.0 L 169.5,121.0 L 173.5,109.0 L 173.5,106.0 L 174.0,105.5 L 174.5,105.0 L 175.5,90.0 L 176.0,89.5 L 176.5,89.0 L 176.0,88.5 L 175.5,88.0 L 175.5,80.0 L 174.5,77.0 L 171.5,71.0 L 166.0,65.5 L 159.0,61.5 L 156.0,61.5 L 155.5,61.0 L 155.0,60.5 L 150.0,60.5 L 149.5,60.0 L 149.0,59.5 L 140.0,60.5 L 139.5,61.0 L 139.0,61.5 L 133.0,62.5 L 126.0,66.5 L 117.5,76.0 L 116.5,79.0 L 116.5,87.0 L 119.0,90.5 L 122.5,90.0 L 123.5,85.0 L 127.0,80.5 L 130.0,78.5 L 136.0,77.5 L 142.5,81.0 L 146.5,88.0 L 146.5,91.0 L 147.0,91.5 L 147.5,92.0 L 147.5,106.0 L 147.0,106.5 L 146.5,107.0 L 146.5,111.0 L 146.0,111.5 L 145.5,112.0 L 144.5,119.0 L 141.5,125.0 L 141.5,126.0 L 141.5,127.0 L 138.5,132.0 L 137.5,136.0 L 130.5,147.0 L 122.0,155.5 L 119.0,157.5 L 113.0,158.5 L 112.5,159.0 L 112.0,159.5 L 107.0,159.5 L 99.0,156.5 L 94.5,152.0 L 90.5,145.0 L 89.5,139.0 L 89.0,138.5 L 88.5,138.0 L 88.5,134.0 L 88.0,133.5 L 87.5,133.0 L 87.5,116.0 L 88.0,115.5 L 88.5,115.0 L 89.5,104.0 L 90.0,103.5 L 90.5,103.0 L 90.5,100.0 L 92.5,94.0 L 99.5,80.0 L 110.0,67.5 L 118.0,61.5 L 126.0,57.5 L 135.0,54.5 L 153.0,53.5 L 153.5,51.0 L 150.0,47.5 L 141.0,43.5 L 137.0,43.5 L 136.5,43.0 L 136.0,42.5 L 121.0,42.5 L 120.5,43.0 L 120.0,43.5 L 111.0,44.5 L 102.0,47.5 L 90.0,53.5 L 81.0,59.5 L 65.5,74.0 L 58.5,83.0 L 50.5,98.0 L 47.5,107.0 L 46.5,115.0 L 46.0,115.5 L 45.5,116.0 L 45.5,137.0 L 46.0,137.5 L 46.5,138.0 L 46.5,142.0 L 49.5,151.0 L 56.5,163.0 L 67.0,173.5 L 76.0,178.5 L 82.0,180.5 L 86.0,180.5 L 86.5,181.0 L 87.0,181.5 L 101.0,181.5 Z M 346.5,202.0 L 348.0,200.5 L 358.0,200.5 L 364.5,204.0 L 365.5,206.0 L 365.5,212.0 L 361.5,217.0 L 364.5,221.0 L 365.0,223.5 L 361.0,223.5 L 356.0,216.5 L 353.0,216.5 L 351.5,218.0 L 351.0,223.5 L 348.0,223.5 L 346.5,222.0 L 347.0,221.5 L 347.5,221.0 L 347.0,220.5 L 346.5,220.0 L 346.5,217.0 L 347.0,216.5 L 347.5,216.0 L 347.0,215.5 L 346.5,215.0 L 347.5,212.0 L 347.5,203.0 L 347.0,202.5 Z M 544.5,221.0 L 541.0,223.5 L 531.0,223.5 L 527.5,221.0 L 529.0,218.5 L 530.0,218.5 L 531.0,218.5 L 534.0,220.5 L 538.0,220.5 L 540.5,218.0 L 540.0,215.5 L 538.0,214.5 L 534.0,214.5 L 528.5,211.0 L 527.5,206.0 L 530.0,202.5 L 534.0,200.5 L 540.0,200.5 L 544.5,203.0 L 543.0,206.5 L 539.0,204.5 L 535.0,204.5 L 533.5,206.0 L 534.0,209.5 L 543.0,211.5 L 545.5,214.0 L 545.5,220.0 L 545.0,220.5 Z M 462.5,212.0 L 462.5,206.0 L 461.0,204.5 L 456.0,205.5 L 456.0,200.5 L 474.5,201.0 L 474.5,204.0 L 473.0,205.5 L 472.5,205.0 L 472.0,204.5 L 469.0,204.5 L 467.5,206.0 L 467.0,223.5 L 462.5,223.0 Z M 504.0,210.5 L 507.0,210.5 L 507.5,214.0 L 498.0,214.5 L 497.5,220.0 L 509.0,219.5 L 509.5,223.0 L 493.0,223.5 L 492.5,201.0 L 508.0,200.5 L 509.5,202.0 L 509.5,203.0 L 509.5,204.0 L 508.0,205.5 L 499.0,204.5 L 497.5,206.0 L 498.0,210.5 Z M 278.0,223.5 L 285.0,223.5 L 287.0,222.5 L 289.5,219.0 L 289.5,215.0 L 286.0,211.5 L 280.0,210.5 L 276.5,208.0 L 279.0,204.5 L 283.0,204.5 L 287.0,206.5 L 288.5,203.0 L 284.0,200.5 L 278.0,200.5 L 274.0,202.5 L 271.5,206.0 L 271.5,209.0 L 275.0,213.5 L 282.0,214.5 L 284.5,217.0 L 282.0,220.5 L 276.0,219.5 L 274.0,217.5 L 271.5,221.0 L 276.0,223.5 L 277.0,223.5 Z M 360.0,211.5 L 358.0,212.5 L 353.0,212.5 L 351.5,211.0 L 351.5,206.0 L 353.0,204.5 L 353.5,205.0 L 354.0,205.5 L 359.0,205.5 L 360.5,207.0 Z M 385.0,201.5 L 382.0,200.5 L 381.5,201.0 L 381.5,202.0 L 385.5,211.0 L 385.5,212.0 L 385.5,213.0 L 387.5,216.0 L 387.5,217.0 L 387.5,218.0 L 389.5,221.0 L 389.5,222.0 L 389.5,223.0 L 396.0,223.5 L 404.5,201.0 L 402.0,200.5 L 401.5,201.0 L 401.0,201.5 L 400.5,201.0 L 400.0,200.5 L 398.5,202.0 L 396.5,210.0 L 393.0,216.5 L 391.5,215.0 L 387.5,203.0 Z M 317.0,200.5 L 312.0,201.5 L 308.5,204.0 L 305.5,210.0 L 305.5,215.0 L 307.5,219.0 L 311.0,222.5 L 318.0,224.5 L 324.0,222.5 L 328.5,218.0 L 329.5,216.0 L 329.5,209.0 L 325.0,202.5 L 321.0,200.5 Z M 317.0,220.5 L 322.0,218.5 L 324.5,215.0 L 324.5,210.0 L 323.5,208.0 L 321.0,205.5 L 318.0,205.5 L 317.5,205.0 L 317.0,204.5 L 314.0,205.5 L 311.5,208.0 L 310.5,211.0 L 310.5,215.0 L 311.5,217.0 L 314.0,219.5 Z M 435.0,210.5 L 436.0,210.5 L 436.5,211.0 L 436.5,214.0 L 427.0,214.5 L 426.5,219.0 L 428.0,220.5 L 428.5,220.0 L 429.0,219.5 L 438.0,219.5 L 438.0,223.5 L 421.5,223.0 L 422.0,200.5 L 438.0,200.5 L 438.5,204.0 L 437.0,205.5 L 426.5,206.0 L 427.0,210.5 Z"/>
  </g>
</svg>
